<svg 
 xmlns="http://www.w3.org/2000/svg"
 xmlns:xlink="http://www.w3.org/1999/xlink"
 width="607px" height="1122px">
<path fill-rule="evenodd"  fill="rgb(0, 0, 0)"
 d="M0.783,422.280 C-1.157,438.442 38.959,489.333 38.959,489.333 L115.310,575.963 L175.1000,636.163 L230.875,692.000 L280.938,744.875 C280.938,744.875 350.518,817.478 364.187,800.000 C375.248,785.858 311.875,705.500 311.875,705.500 L260.687,639.125 L212.312,583.438 L162.812,527.750 L126.812,488.938 C126.812,488.938 92.197,450.414 91.328,433.048 C90.460,415.682 145.166,363.548 145.166,363.548 L205.855,308.732 L283.565,222.248 L341.429,159.455 L395.756,99.744 C395.756,99.744 417.287,73.401 423.250,64.813 C430.135,54.895 428.736,49.153 419.248,40.033 C406.048,27.345 337.396,-1.797 331.562,0.688 C325.729,3.172 303.661,25.004 304.000,31.625 C304.339,38.246 334.246,57.030 332.125,76.063 C330.004,95.095 238.188,180.125 238.188,180.125 L175.511,243.148 L116.688,294.875 L51.684,354.249 C51.684,354.249 4.422,404.724 0.783,422.280 Z"/>
<path fill-rule="evenodd"  fill="rgb(0, 0, 0)"
 d="M587.063,108.938 C597.482,91.297 615.428,74.801 600.000,66.750 C586.571,59.742 499.312,22.313 499.312,22.313 C499.312,22.313 478.841,50.149 479.063,59.437 C479.284,68.726 508.393,87.477 507.750,101.625 C507.055,116.914 469.500,155.625 469.500,155.625 L393.000,232.125 L327.482,299.208 L282.454,343.257 L228.616,399.053 C228.616,399.053 209.970,421.820 213.444,439.186 C216.917,456.552 262.876,509.175 262.876,509.175 L324.545,575.249 L374.957,631.534 L414.111,669.709 L444.456,697.118 C444.456,697.118 501.818,743.247 502.209,761.723 C502.645,782.279 470.625,818.250 470.625,818.250 L421.125,872.812 L359.812,942.000 C359.812,942.000 298.362,1009.212 290.063,1020.750 C271.592,1046.427 227.241,1107.963 235.468,1119.988 C244.749,1133.553 312.444,1063.817 325.500,1051.125 C346.229,1030.974 459.375,922.313 459.375,922.313 L543.322,841.011 C543.322,841.011 598.292,785.950 595.202,757.807 C591.803,726.860 508.083,647.685 508.083,647.685 L439.072,581.122 L405.791,548.330 L356.358,498.897 C356.358,498.897 315.688,462.869 310.352,441.633 C306.788,427.453 362.721,364.303 362.721,364.303 L441.519,282.078 L507.750,209.062 L551.642,155.315 C551.642,155.315 575.992,127.682 587.063,108.938 Z"/>
<path fill-rule="evenodd"  fill="rgb(0, 0, 0)"
 d="M458.077,387.775 C453.457,387.976 409.506,425.454 409.506,433.233 C409.506,441.011 457.060,485.189 460.568,485.540 C464.075,485.891 508.902,437.627 509.761,430.742 C510.621,423.857 462.696,387.574 458.077,387.775 Z"/>
</svg>